name ../AP_Laxity/ap_75.mot
datacolumns   7
datarows 75
range   21.00000000 21.74000000
cursor 1.0 1.0 0.0
keys m_key
wrap
enforce_loops no
enforce_constraints no
calc_derivatives -1.000000
event_color 0.000000 0.000000 0.000000
endheader
            time femur_r_force_vx femur_r_force_vy femur_r_force_vz femur_r_force_px femur_r_force_py femur_r_force_pz 
     21.00000000      22.80405502     -85.10589196       0.00000000      -0.06780825      -0.46560544       0.00000000 
     21.01000000      22.84928877     -85.27470660       0.00000000      -0.06780825      -0.46560544       0.00000000 
     21.02000000      22.89423181     -85.44243633       0.00000000      -0.06780825      -0.46560544       0.00000000 
     21.03000000      22.93888284     -85.60907624       0.00000000      -0.06780825      -0.46560544       0.00000000 
     21.04000000      22.98324055     -85.77462144       0.00000000      -0.06780825      -0.46560544       0.00000000 
     21.05000000      23.02730362     -85.93906707       0.00000000      -0.06780825      -0.46560544       0.00000000 
     21.06000000      23.07107077     -86.10240830       0.00000000      -0.06780825      -0.46560544       0.00000000 
     21.07000000      23.11454072     -86.26464035       0.00000000      -0.06780825      -0.46560544       0.00000000 
     21.08000000      23.15771218     -86.42575845       0.00000000      -0.06780825      -0.46560544       0.00000000 
     21.09000000      23.20058390     -86.58575787       0.00000000      -0.06780825      -0.46560544       0.00000000 
     21.10000000      23.24315461     -86.74463393       0.00000000      -0.06780825      -0.46560544       0.00000000 
     21.11000000      23.28542307     -86.90238196       0.00000000      -0.06780825      -0.46560544       0.00000000 
     21.12000000      23.32738803     -87.05899733       0.00000000      -0.06780825      -0.46560544       0.00000000 
     21.13000000      23.36904826     -87.21447545       0.00000000      -0.06780825      -0.46560544       0.00000000 
     21.14000000      23.41040255     -87.36881175       0.00000000      -0.06780825      -0.46560544       0.00000000 
     21.15000000      23.45144968     -87.52200172       0.00000000      -0.06780825      -0.46560544       0.00000000 
     21.16000000      23.49218844     -87.67404084       0.00000000      -0.06780825      -0.46560544       0.00000000 
     21.17000000      23.53261764     -87.82492467       0.00000000      -0.06780825      -0.46560544       0.00000000 
     21.18000000      23.57273610     -87.97464878       0.00000000      -0.06780825      -0.46560544       0.00000000 
     21.19000000      23.61254262     -88.12320877       0.00000000      -0.06780825      -0.46560544       0.00000000 
     21.20000000      23.65203606     -88.27060029       0.00000000      -0.06780825      -0.46560544       0.00000000 
     21.21000000      23.69121525     -88.41681900       0.00000000      -0.06780825      -0.46560544       0.00000000 
     21.22000000      23.73007904     -88.56186063       0.00000000      -0.06780825      -0.46560544       0.00000000 
     21.23000000      23.76862628     -88.70572091       0.00000000      -0.06780825      -0.46560544       0.00000000 
     21.24000000      23.80685586     -88.84839563       0.00000000      -0.06780825      -0.46560544       0.00000000 
     21.25000000      23.84476664     -88.98988060       0.00000000      -0.06780825      -0.46560544       0.00000000 
     21.26000000      23.88235752     -89.13017166       0.00000000      -0.06780825      -0.46560544       0.00000000 
     21.27000000      23.91962739     -89.26926471       0.00000000      -0.06780825      -0.46560544       0.00000000 
     21.28000000      23.95657516     -89.40715566       0.00000000      -0.06780825      -0.46560544       0.00000000 
     21.29000000      23.99319974     -89.54384046       0.00000000      -0.06780825      -0.46560544       0.00000000 
     21.30000000      24.02950006     -89.67931511       0.00000000      -0.06780825      -0.46560544       0.00000000 
     21.31000000      24.06547506     -89.81357563       0.00000000      -0.06780825      -0.46560544       0.00000000 
     21.32000000      24.10112368     -89.94661808       0.00000000      -0.06780825      -0.46560544       0.00000000 
     21.33000000      24.13644487     -90.07843856       0.00000000      -0.06780825      -0.46560544       0.00000000 
     21.34000000      24.17143760     -90.20903320       0.00000000      -0.06780825      -0.46560544       0.00000000 
     21.35000000      24.20610084     -90.33839817       0.00000000      -0.06780825      -0.46560544       0.00000000 
     21.36000000      24.24043357     -90.46652968       0.00000000      -0.06780825      -0.46560544       0.00000000 
     21.37000000      24.27443479     -90.59342395       0.00000000      -0.06780825      -0.46560544       0.00000000 
     21.38000000      24.30810350     -90.71907729       0.00000000      -0.06780825      -0.46560544       0.00000000 
     21.39000000      24.34143871     -90.84348598       0.00000000      -0.06780825      -0.46560544       0.00000000 
     21.40000000      24.37443944     -90.96664639       0.00000000      -0.06780825      -0.46560544       0.00000000 
     21.41000000      24.40710473     -91.08855491       0.00000000      -0.06780825      -0.46560544       0.00000000 
     21.42000000      24.43943361     -91.20920795       0.00000000      -0.06780825      -0.46560544       0.00000000 
     21.43000000      24.47142514     -91.32860197       0.00000000      -0.06780825      -0.46560544       0.00000000 
     21.44000000      24.50307839     -91.44673348       0.00000000      -0.06780825      -0.46560544       0.00000000 
     21.45000000      24.53439241     -91.56359900       0.00000000      -0.06780825      -0.46560544       0.00000000 
     21.46000000      24.56536629     -91.67919511       0.00000000      -0.06780825      -0.46560544       0.00000000 
     21.47000000      24.59599913     -91.79351842       0.00000000      -0.06780825      -0.46560544       0.00000000 
     21.48000000      24.62629002     -91.90656557       0.00000000      -0.06780825      -0.46560544       0.00000000 
     21.49000000      24.65623808     -92.01833325       0.00000000      -0.06780825      -0.46560544       0.00000000 
     21.50000000      24.68584243     -92.12881817       0.00000000      -0.06780825      -0.46560544       0.00000000 
     21.51000000      24.71510219     -92.23801710       0.00000000      -0.06780825      -0.46560544       0.00000000 
     21.52000000      24.74401652     -92.34592683       0.00000000      -0.06780825      -0.46560544       0.00000000 
     21.53000000      24.77258456     -92.45254420       0.00000000      -0.06780825      -0.46560544       0.00000000 
     21.54000000      24.80080547     -92.55786607       0.00000000      -0.06780825      -0.46560544       0.00000000 
     21.55000000      24.82867842     -92.66188936       0.00000000      -0.06780825      -0.46560544       0.00000000 
     21.56000000      24.85620261     -92.76461102       0.00000000      -0.06780825      -0.46560544       0.00000000 
     21.57000000      24.88337721     -92.86602803       0.00000000      -0.06780825      -0.46560544       0.00000000 
     21.58000000      24.91020144     -92.96613741       0.00000000      -0.06780825      -0.46560544       0.00000000 
     21.59000000      24.93667451     -93.06493623       0.00000000      -0.06780825      -0.46560544       0.00000000 
     21.60000000      24.96279563     -93.16242160       0.00000000      -0.06780825      -0.46560544       0.00000000 
     21.61000000      24.98856405     -93.25859064       0.00000000      -0.06780825      -0.46560544       0.00000000 
     21.62000000      25.01397901     -93.35344055       0.00000000      -0.06780825      -0.46560544       0.00000000 
     21.63000000      25.03903975     -93.44696853       0.00000000      -0.06780825      -0.46560544       0.00000000 
     21.64000000      25.06374556     -93.53917184       0.00000000      -0.06780825      -0.46560544       0.00000000 
     21.65000000      25.08809569     -93.63004778       0.00000000      -0.06780825      -0.46560544       0.00000000 
     21.66000000      25.11208944     -93.71959368       0.00000000      -0.06780825      -0.46560544       0.00000000 
     21.67000000      25.13572611     -93.80780691       0.00000000      -0.06780825      -0.46560544       0.00000000 
     21.68000000      25.15900499     -93.89468489       0.00000000      -0.06780825      -0.46560544       0.00000000 
     21.69000000      25.18192541     -93.98022507       0.00000000      -0.06780825      -0.46560544       0.00000000 
     21.70000000      25.20448670     -94.06442493       0.00000000      -0.06780825      -0.46560544       0.00000000 
     21.71000000      25.22668819     -94.14728202       0.00000000      -0.06780825      -0.46560544       0.00000000 
     21.72000000      25.24852922     -94.22879388       0.00000000      -0.06780825      -0.46560544       0.00000000 
     21.73000000      25.27000917     -94.30895814       0.00000000      -0.06780825      -0.46560544       0.00000000 
     21.74000000      25.29112740     -94.38777245       0.00000000      -0.06780825      -0.46560544       0.00000000 
